<svg xmlns="http://www.w3.org/2000/svg" viewBox="0 0 200 200" width="200" height="200" preserveAspectRatio="xMidYMid meet">
  <polyline fill="none" stroke="#e10600" stroke-width="2" vector-effect="non-scaling-stroke" stroke-linecap="round" stroke-linejoin="round" points="152.2809,144.5282 87.7415,162.2946 83.2358,161.8296 71.1938,148.4406 54.4376,122.8975 34.0736,82.5704 27.0504,71.6668 1.8440,46.2038 0.0321,42.9488 0.5452,40.7200 2.9824,39.1325 9.4284,38.0742 28.5416,37.7696 87.1162,47.4064 121.5906,49.3306 125.4550,50.6133 127.9243,54.1730 127.0584,59.2881 122.1358,65.7821 115.7861,70.2718 102.6377,74.0399 71.6748,70.1435 64.4592,70.8170 59.2800,73.5749 56.5221,77.1987 55.3355,82.1535 55.9128,88.4230 58.3340,94.4841 67.5539,108.7389 72.2521,113.0682 77.2869,114.9282 85.5287,112.6834 102.7980,98.6691 111.9699,96.0394 175.4029,94.7086 185.1680,96.0394 191.1970,99.5671 194.0832,103.5918 199.7595,122.5447 199.7274,128.1568 197.6108,131.7967 185.8093,138.0502 149.0900,148.0718" />
</svg>
