<svg xmlns="http://www.w3.org/2000/svg" viewBox="0 0 200 200" width="200" height="200" preserveAspectRatio="xMidYMid meet">
  <polyline fill="none" stroke="#e10600" stroke-width="2" vector-effect="non-scaling-stroke" stroke-linecap="round" stroke-linejoin="round" points="112.4300,153.8360 37.7511,171.4192 30.5400,170.7112 26.2430,168.8838 21.4850,164.7679 18.5710,158.1330 19.1307,151.8604 21.0734,148.4360 24.8601,145.8347 29.3052,145.8347 32.8778,149.7037 32.4992,157.7708 33.5858,160.5203 36.5492,162.2819 40.1218,161.4587 43.6450,156.8159 44.1883,148.8311 40.6651,140.6322 18.2417,115.2947 13.3520,108.3471 7.1287,95.4890 0.5927,77.3296 0.3622,72.2094 2.3049,69.9045 4.9226,69.3941 8.2647,70.4643 13.7471,75.0412 20.3984,84.6724 31.4290,107.2440 39.6608,115.2124 44.4024,117.3527 53.3257,118.2581 59.8288,116.3978 67.9947,109.5818 76.1607,95.0115 80.9516,90.9779 86.7962,89.1669 91.5706,89.7102 96.2134,92.2292 103.8196,105.3013 106.6348,107.7050 111.5410,108.4788 113.8953,107.6062 118.6533,102.0909 119.9045,97.7116 118.0606,88.6401 85.5779,33.6352 82.7132,31.1656 79.4534,30.8034 73.1972,35.0675 68.6533,35.6108 63.0392,31.5278 61.3764,24.9918 64.3563,16.9246 67.3033,14.1422 75.1729,11.1459 82.8120,11.7056 88.6730,14.2904 96.8061,22.5552 198.8640,182.2193 199.8024,187.1419 198.2055,188.7718 195.2420,188.8212 186.6645,182.1864 165.4923,149.2591 159.4995,144.8634 162.1666,144.9621 154.5275,134.1620 152.4202,133.3059 117.4185,151.0701 62.1008,163.3355" />
</svg>
