<svg xmlns="http://www.w3.org/2000/svg" viewBox="0 0 200 200" width="200" height="200" preserveAspectRatio="xMidYMid meet">
  <polyline fill="none" stroke="#e10600" stroke-width="2" vector-effect="non-scaling-stroke" stroke-linecap="round" stroke-linejoin="round" points="138.4734,189.7815 156.5097,168.6570 157.2689,165.7946 154.2526,162.5834 149.2767,162.9219 140.4330,169.5701 136.0111,170.3806 129.5270,167.4259 126.4286,162.9014 124.6332,144.9882 122.3761,77.7367 123.2277,74.7102 125.2283,72.7301 143.9417,72.1863 149.8512,69.9908 155.4427,65.4047 159.5465,56.1711 158.6334,52.4879 154.9605,50.4873 153.6678,48.3841 156.6328,40.9767 156.6328,37.7449 154.2321,35.7751 122.1914,35.9495 111.3471,33.2102 103.6011,26.6544 95.7731,11.3573 91.4846,6.5661 84.0361,2.2468 72.5557,0.1231 70.5448,2.1237 65.6920,14.0453 50.5694,43.0902 42.4643,73.2328 40.8433,92.8286 40.8536,191.7103 42.9465,194.7984 46.9580,195.9782 51.7800,199.3229 60.6751,200.0000 124.3357,198.7586 132.2150,196.5220 139.0992,190.9511" />
</svg>
